<svg width="64" height="64" viewBox="0 0 64 64" fill="none" xmlns="http://www.w3.org/2000/svg">
  <rect width="64" height="64" rx="12" fill="#0A0A0A"/>
  <path d="M28.5 44.5C25.5 44.5 23.1667 43.8333 21.5 42.5C19.8333 41.1667 18.8333 39.3333 18.5 37H25C25.3333 38 25.9167 38.7917 26.75 39.375C27.5833 39.9583 28.6667 40.25 30 40.25C31.3333 40.25 32.3333 40 33 39.5C33.6667 39 34 38.3333 34 37.5C34 36.8333 33.75 36.2917 33.25 35.875C32.75 35.4583 32.0833 35.125 31.25 34.875C30.4167 34.625 29.25 34.3333 27.75 34C25.4167 33.5 23.5417 32.9167 22.125 32.25C20.7083 31.5833 19.5417 30.625 18.625 29.375C17.7083 28.125 17.25 26.5 17.25 24.5C17.25 22.6667 17.7083 21.0417 18.625 19.625C19.5417 18.2083 20.8333 17.0833 22.5 16.25C24.1667 15.4167 26.0833 15 28.25 15C31.25 15 33.625 15.7083 35.375 17.125C37.125 18.5417 38.1667 20.5 38.5 23H31.75C31.5 22.1667 31.0417 21.5 30.375 21C29.7083 20.5 28.8333 20.25 27.75 20.25C26.75 20.25 25.9583 20.4583 25.375 20.875C24.7917 21.2917 24.5 21.8333 24.5 22.5C24.5 23.3333 24.875 23.9583 25.625 24.375C26.375 24.7917 27.5833 25.1667 29.25 25.5C31.5833 26 33.4583 26.5833 34.875 27.25C36.2917 27.9167 37.4583 28.875 38.375 30.125C39.2917 31.375 39.75 33 39.75 35C39.75 36.6667 39.3333 38.2083 38.5 39.625C37.6667 41.0417 36.4167 42.1667 34.75 43C33.0833 43.8333 31.0833 44.25 28.75 44.25L28.5 44.5Z" fill="white"/>
</svg>

